<mxfile host="app.diagrams.net" modified="2023-10-28T18:10:28.259Z" agent="Mozilla/5.0 (Windows NT 10.0; Win64; x64) AppleWebKit/537.36 (KHTML, like Gecko) Chrome/118.0.0.0 Safari/537.36" etag="S8Op4jmet95ryxL3FUTe" version="22.0.8" type="github">
  <diagram name="PÃ¡gina-1" id="Wo8604u8FUJTsB0TZFGR">
    <mxGraphModel dx="1728" dy="963" grid="1" gridSize="10" guides="1" tooltips="1" connect="1" arrows="1" fold="1" page="1" pageScale="1" pageWidth="827" pageHeight="1169" math="0" shadow="0">
      <root>
        <mxCell id="0" />
        <mxCell id="1" parent="0" />
        <mxCell id="gC3bpvPvigRXjln-FE_F-1" value="" style="rounded=0;whiteSpace=wrap;html=1;fillColor=none;strokeColor=#B3B3B3;" vertex="1" parent="1">
          <mxGeometry x="18" y="50" width="800" height="1110" as="geometry" />
        </mxCell>
        <mxCell id="gC3bpvPvigRXjln-FE_F-7" value="ALUMNO" style="whiteSpace=wrap;html=1;align=center;" vertex="1" parent="1">
          <mxGeometry x="118" y="460" width="100" height="40" as="geometry" />
        </mxCell>
        <mxCell id="gC3bpvPvigRXjln-FE_F-143" style="edgeStyle=orthogonalEdgeStyle;rounded=0;orthogonalLoop=1;jettySize=auto;html=1;exitX=0.25;exitY=1;exitDx=0;exitDy=0;entryX=1;entryY=0.5;entryDx=0;entryDy=0;endArrow=none;endFill=0;" edge="1" parent="1" source="gC3bpvPvigRXjln-FE_F-8" target="gC3bpvPvigRXjln-FE_F-138">
          <mxGeometry relative="1" as="geometry">
            <Array as="points">
              <mxPoint x="530" y="300" />
              <mxPoint x="530" y="385" />
            </Array>
          </mxGeometry>
        </mxCell>
        <mxCell id="gC3bpvPvigRXjln-FE_F-8" value="MODULO" style="whiteSpace=wrap;html=1;align=center;" vertex="1" parent="1">
          <mxGeometry x="520" y="260" width="98" height="40" as="geometry" />
        </mxCell>
        <mxCell id="gC3bpvPvigRXjln-FE_F-9" style="edgeStyle=orthogonalEdgeStyle;rounded=0;orthogonalLoop=1;jettySize=auto;html=1;exitX=1;exitY=0.5;exitDx=0;exitDy=0;entryX=0;entryY=0.5;entryDx=0;entryDy=0;endArrow=none;endFill=0;" edge="1" parent="1" source="gC3bpvPvigRXjln-FE_F-13" target="gC3bpvPvigRXjln-FE_F-18">
          <mxGeometry relative="1" as="geometry" />
        </mxCell>
        <mxCell id="gC3bpvPvigRXjln-FE_F-10" style="edgeStyle=orthogonalEdgeStyle;rounded=0;orthogonalLoop=1;jettySize=auto;html=1;exitDx=0;exitDy=0;entryX=0.5;entryY=1;entryDx=0;entryDy=0;endArrow=none;endFill=0;dashed=1;dashPattern=1 2;" edge="1" parent="1" source="gC3bpvPvigRXjln-FE_F-33" target="gC3bpvPvigRXjln-FE_F-27">
          <mxGeometry relative="1" as="geometry" />
        </mxCell>
        <mxCell id="gC3bpvPvigRXjln-FE_F-13" value="CICLO" style="whiteSpace=wrap;html=1;align=center;" vertex="1" parent="1">
          <mxGeometry x="118" y="260" width="100" height="40" as="geometry" />
        </mxCell>
        <mxCell id="gC3bpvPvigRXjln-FE_F-14" style="edgeStyle=orthogonalEdgeStyle;rounded=0;orthogonalLoop=1;jettySize=auto;html=1;exitX=0.5;exitY=0;exitDx=0;exitDy=0;entryX=0.5;entryY=0;entryDx=0;entryDy=0;" edge="1" parent="1">
          <mxGeometry relative="1" as="geometry">
            <mxPoint x="30" y="380" as="sourcePoint" />
            <mxPoint x="30" y="380" as="targetPoint" />
          </mxGeometry>
        </mxCell>
        <mxCell id="gC3bpvPvigRXjln-FE_F-17" style="edgeStyle=orthogonalEdgeStyle;rounded=0;orthogonalLoop=1;jettySize=auto;html=1;exitX=1;exitY=0.5;exitDx=0;exitDy=0;entryX=0;entryY=0.5;entryDx=0;entryDy=0;endArrow=none;endFill=0;" edge="1" parent="1" source="gC3bpvPvigRXjln-FE_F-18" target="gC3bpvPvigRXjln-FE_F-8">
          <mxGeometry relative="1" as="geometry" />
        </mxCell>
        <mxCell id="gC3bpvPvigRXjln-FE_F-18" value="TIENE&lt;br&gt;1:N" style="shape=rhombus;perimeter=rhombusPerimeter;whiteSpace=wrap;html=1;align=center;" vertex="1" parent="1">
          <mxGeometry x="313" y="250" width="110" height="60" as="geometry" />
        </mxCell>
        <mxCell id="gC3bpvPvigRXjln-FE_F-21" style="rounded=0;orthogonalLoop=1;jettySize=auto;html=1;exitX=0;exitY=0.5;exitDx=0;exitDy=0;strokeColor=none;endArrow=none;endFill=0;shadow=1;" edge="1" parent="1">
          <mxGeometry relative="1" as="geometry">
            <mxPoint x="108" y="525" as="targetPoint" />
            <mxPoint x="88" y="510" as="sourcePoint" />
          </mxGeometry>
        </mxCell>
        <mxCell id="gC3bpvPvigRXjln-FE_F-23" value="(0, 1)" style="text;strokeColor=none;fillColor=none;spacingLeft=4;spacingRight=4;overflow=hidden;rotatable=0;points=[[0,0.5],[1,0.5]];portConstraint=eastwest;fontSize=12;whiteSpace=wrap;html=1;" vertex="1" parent="1">
          <mxGeometry x="218" y="250" width="50" height="30" as="geometry" />
        </mxCell>
        <mxCell id="gC3bpvPvigRXjln-FE_F-24" value="(0, N)" style="text;strokeColor=none;fillColor=none;spacingLeft=4;spacingRight=4;overflow=hidden;rotatable=0;points=[[0,0.5],[1,0.5]];portConstraint=eastwest;fontSize=12;whiteSpace=wrap;html=1;" vertex="1" parent="1">
          <mxGeometry x="480" y="250" width="50" height="30" as="geometry" />
        </mxCell>
        <mxCell id="gC3bpvPvigRXjln-FE_F-25" value="EJER. 9 -&amp;nbsp; INSTITUTO&amp;nbsp;" style="text;html=1;align=center;verticalAlign=middle;resizable=0;points=[];autosize=1;strokeColor=#36393d;fillColor=#cce5ff;" vertex="1" parent="1">
          <mxGeometry x="68" y="80" width="150" height="30" as="geometry" />
        </mxCell>
        <mxCell id="gC3bpvPvigRXjln-FE_F-26" style="edgeStyle=orthogonalEdgeStyle;rounded=0;orthogonalLoop=1;jettySize=auto;html=1;exitX=0;exitY=0.5;exitDx=0;exitDy=0;entryX=1;entryY=0.5;entryDx=0;entryDy=0;endArrow=none;endFill=0;startArrow=none;startFill=0;strokeColor=none;" edge="1" parent="1">
          <mxGeometry relative="1" as="geometry">
            <mxPoint x="50" y="265" as="sourcePoint" />
            <mxPoint x="100" y="265" as="targetPoint" />
          </mxGeometry>
        </mxCell>
        <mxCell id="gC3bpvPvigRXjln-FE_F-27" value="codigo" style="ellipse;whiteSpace=wrap;html=1;align=center;fontStyle=4;" vertex="1" parent="1">
          <mxGeometry x="178" y="180" width="100" height="40" as="geometry" />
        </mxCell>
        <mxCell id="gC3bpvPvigRXjln-FE_F-28" style="edgeStyle=orthogonalEdgeStyle;rounded=0;orthogonalLoop=1;jettySize=auto;html=1;exitX=0;exitY=0.5;exitDx=0;exitDy=0;entryX=1;entryY=0.5;entryDx=0;entryDy=0;endArrow=none;endFill=0;dashed=1;dashPattern=1 2;startArrow=none;startFill=0;" edge="1" parent="1" source="gC3bpvPvigRXjln-FE_F-29" target="gC3bpvPvigRXjln-FE_F-8">
          <mxGeometry relative="1" as="geometry">
            <Array as="points">
              <mxPoint x="660" y="280" />
              <mxPoint x="660" y="280" />
            </Array>
          </mxGeometry>
        </mxCell>
        <mxCell id="gC3bpvPvigRXjln-FE_F-29" value="nombre" style="ellipse;whiteSpace=wrap;html=1;align=center;" vertex="1" parent="1">
          <mxGeometry x="670" y="260" width="100" height="40" as="geometry" />
        </mxCell>
        <mxCell id="gC3bpvPvigRXjln-FE_F-30" style="edgeStyle=orthogonalEdgeStyle;rounded=0;orthogonalLoop=1;jettySize=auto;html=1;exitX=0;exitY=0.5;exitDx=0;exitDy=0;entryX=0.5;entryY=0;entryDx=0;entryDy=0;endArrow=none;endFill=0;dashed=1;dashPattern=1 2;" edge="1" parent="1" source="gC3bpvPvigRXjln-FE_F-71" target="gC3bpvPvigRXjln-FE_F-8">
          <mxGeometry relative="1" as="geometry">
            <mxPoint x="648" y="385" as="sourcePoint" />
            <Array as="points">
              <mxPoint x="569" y="160" />
            </Array>
          </mxGeometry>
        </mxCell>
        <mxCell id="gC3bpvPvigRXjln-FE_F-31" style="edgeStyle=orthogonalEdgeStyle;rounded=0;orthogonalLoop=1;jettySize=auto;html=1;exitX=0;exitY=0.5;exitDx=0;exitDy=0;entryX=0.75;entryY=0;entryDx=0;entryDy=0;dashed=1;dashPattern=1 2;endArrow=none;endFill=0;" edge="1" parent="1" source="gC3bpvPvigRXjln-FE_F-55" target="gC3bpvPvigRXjln-FE_F-8">
          <mxGeometry relative="1" as="geometry">
            <Array as="points">
              <mxPoint x="610" y="210" />
              <mxPoint x="610" y="260" />
            </Array>
          </mxGeometry>
        </mxCell>
        <mxCell id="gC3bpvPvigRXjln-FE_F-32" value="" style="edgeStyle=orthogonalEdgeStyle;rounded=0;orthogonalLoop=1;jettySize=auto;html=1;exitX=0.5;exitY=0;exitDx=0;exitDy=0;entryDx=0;entryDy=0;endArrow=none;endFill=0;dashed=1;dashPattern=1 2;" edge="1" parent="1" source="gC3bpvPvigRXjln-FE_F-13" target="gC3bpvPvigRXjln-FE_F-33">
          <mxGeometry relative="1" as="geometry">
            <mxPoint x="228" y="260" as="sourcePoint" />
            <mxPoint x="228" y="220" as="targetPoint" />
          </mxGeometry>
        </mxCell>
        <mxCell id="gC3bpvPvigRXjln-FE_F-33" value="" style="shape=waypoint;sketch=0;fillStyle=solid;size=6;pointerEvents=1;points=[];fillColor=none;resizable=0;rotatable=0;perimeter=centerPerimeter;snapToPoint=1;" vertex="1" parent="1">
          <mxGeometry x="218" y="210" width="20" height="20" as="geometry" />
        </mxCell>
        <mxCell id="gC3bpvPvigRXjln-FE_F-52" style="edgeStyle=orthogonalEdgeStyle;rounded=0;orthogonalLoop=1;jettySize=auto;html=1;exitX=0.25;exitY=0;exitDx=0;exitDy=0;entryX=0.5;entryY=0;entryDx=0;entryDy=0;dashed=1;dashPattern=1 2;endArrow=none;endFill=0;" edge="1" parent="1" source="gC3bpvPvigRXjln-FE_F-13" target="gC3bpvPvigRXjln-FE_F-47">
          <mxGeometry relative="1" as="geometry">
            <mxPoint x="198" y="300" as="sourcePoint" />
            <mxPoint x="188" y="330" as="targetPoint" />
            <Array as="points">
              <mxPoint x="155" y="240" />
              <mxPoint x="120" y="240" />
              <mxPoint x="120" y="180" />
            </Array>
          </mxGeometry>
        </mxCell>
        <mxCell id="gC3bpvPvigRXjln-FE_F-55" value="codigo" style="ellipse;whiteSpace=wrap;html=1;align=center;fontStyle=4;" vertex="1" parent="1">
          <mxGeometry x="638" y="190" width="100" height="40" as="geometry" />
        </mxCell>
        <mxCell id="gC3bpvPvigRXjln-FE_F-57" value="" style="shape=waypoint;sketch=0;fillStyle=solid;size=6;pointerEvents=1;points=[];fillColor=none;resizable=0;rotatable=0;perimeter=centerPerimeter;snapToPoint=1;" vertex="1" parent="1">
          <mxGeometry x="628" y="200" width="20" height="20" as="geometry" />
        </mxCell>
        <mxCell id="gC3bpvPvigRXjln-FE_F-58" value="&lt;div style=&quot;text-align: justify;&quot;&gt;&lt;span style=&quot;background-color: initial;&quot;&gt;CICLO (#codigo, nombre)&lt;/span&gt;&lt;/div&gt;&lt;font style=&quot;&quot;&gt;&lt;div style=&quot;text-align: justify;&quot;&gt;&lt;span style=&quot;background-color: initial;&quot;&gt;&lt;br&gt;&lt;/span&gt;&lt;/div&gt;&lt;div style=&quot;text-align: justify;&quot;&gt;&lt;span style=&quot;background-color: initial;&quot;&gt;ALUMNO (#dni, nombre, apellido, direccion, fecha_nacimiento)&lt;/span&gt;&lt;br&gt;&lt;/div&gt;&lt;div style=&quot;font-size: 12px; text-align: justify;&quot;&gt;&lt;br&gt;&lt;/div&gt;&lt;div style=&quot;font-size: 12px; text-align: justify;&quot;&gt;MODULO (#codigo, nombre, curso, codigo_coclo&lt;/div&gt;&lt;/font&gt;" style="text;html=1;align=center;verticalAlign=middle;resizable=0;points=[];autosize=1;strokeColor=none;fillColor=none;" vertex="1" parent="1">
          <mxGeometry x="68" y="760" width="360" height="90" as="geometry" />
        </mxCell>
        <mxCell id="gC3bpvPvigRXjln-FE_F-61" value="&lt;div style=&quot;text-align: justify;&quot;&gt;&lt;span style=&quot;background-color: initial;&quot;&gt;PROFESOR (#dni, nombre, direccion, cuerpo, cod_modulo)&lt;/span&gt;&lt;/div&gt;&lt;font style=&quot;&quot;&gt;&lt;div style=&quot;text-align: justify;&quot;&gt;&lt;br&gt;&lt;/div&gt;&lt;div style=&quot;text-align: justify;&quot;&gt;&lt;span style=&quot;background-color: initial;&quot;&gt;MATRICULA (#dni_alumno, #cod_modulo)&lt;/span&gt;&lt;/div&gt;&lt;/font&gt;" style="text;html=1;align=left;verticalAlign=middle;resizable=0;points=[];autosize=1;strokeColor=none;fillColor=none;" vertex="1" parent="1">
          <mxGeometry x="78" y="850" width="340" height="60" as="geometry" />
        </mxCell>
        <mxCell id="gC3bpvPvigRXjln-FE_F-47" value="nombre" style="ellipse;whiteSpace=wrap;html=1;align=center;" vertex="1" parent="1">
          <mxGeometry x="68" y="180" width="100" height="40" as="geometry" />
        </mxCell>
        <mxCell id="gC3bpvPvigRXjln-FE_F-71" value="curso" style="ellipse;whiteSpace=wrap;html=1;align=center;" vertex="1" parent="1">
          <mxGeometry x="580" y="140" width="100" height="40" as="geometry" />
        </mxCell>
        <mxCell id="gC3bpvPvigRXjln-FE_F-134" style="edgeStyle=orthogonalEdgeStyle;rounded=0;orthogonalLoop=1;jettySize=auto;html=1;exitX=0.75;exitY=0;exitDx=0;exitDy=0;entryX=0.5;entryY=1;entryDx=0;entryDy=0;endArrow=none;endFill=0;" edge="1" parent="1" source="gC3bpvPvigRXjln-FE_F-102" target="gC3bpvPvigRXjln-FE_F-132">
          <mxGeometry relative="1" as="geometry">
            <Array as="points">
              <mxPoint x="585" y="530" />
            </Array>
          </mxGeometry>
        </mxCell>
        <mxCell id="gC3bpvPvigRXjln-FE_F-102" value="PROFESOR" style="whiteSpace=wrap;html=1;align=center;" vertex="1" parent="1">
          <mxGeometry x="490" y="530" width="108" height="40" as="geometry" />
        </mxCell>
        <mxCell id="gC3bpvPvigRXjln-FE_F-104" value="(0, N)" style="text;strokeColor=none;fillColor=none;spacingLeft=4;spacingRight=4;overflow=hidden;rotatable=0;points=[[0,0.5],[1,0.5]];portConstraint=eastwest;fontSize=12;whiteSpace=wrap;html=1;" vertex="1" parent="1">
          <mxGeometry x="588" y="500" width="50" height="30" as="geometry" />
        </mxCell>
        <mxCell id="gC3bpvPvigRXjln-FE_F-109" style="edgeStyle=orthogonalEdgeStyle;rounded=0;orthogonalLoop=1;jettySize=auto;html=1;exitDx=0;exitDy=0;dashed=1;dashPattern=1 2;endArrow=none;endFill=0;" edge="1" parent="1" source="gC3bpvPvigRXjln-FE_F-108" target="gC3bpvPvigRXjln-FE_F-107">
          <mxGeometry relative="1" as="geometry">
            <mxPoint x="630" y="590" as="targetPoint" />
          </mxGeometry>
        </mxCell>
        <mxCell id="gC3bpvPvigRXjln-FE_F-123" style="edgeStyle=orthogonalEdgeStyle;rounded=0;orthogonalLoop=1;jettySize=auto;html=1;exitX=0.5;exitY=1;exitDx=0;exitDy=0;dashed=1;dashPattern=1 2;endArrow=none;endFill=0;entryX=0;entryY=0;entryDx=0;entryDy=0;" edge="1" parent="1" target="gC3bpvPvigRXjln-FE_F-125" source="gC3bpvPvigRXjln-FE_F-102">
          <mxGeometry relative="1" as="geometry">
            <mxPoint x="590" y="560" as="sourcePoint" />
            <mxPoint x="540" y="640" as="targetPoint" />
            <Array as="points">
              <mxPoint x="570" y="570" />
              <mxPoint x="570" y="606" />
            </Array>
          </mxGeometry>
        </mxCell>
        <mxCell id="gC3bpvPvigRXjln-FE_F-125" value="nombre" style="ellipse;whiteSpace=wrap;html=1;align=center;" vertex="1" parent="1">
          <mxGeometry x="618" y="600" width="100" height="40" as="geometry" />
        </mxCell>
        <mxCell id="gC3bpvPvigRXjln-FE_F-126" style="edgeStyle=orthogonalEdgeStyle;rounded=0;orthogonalLoop=1;jettySize=auto;html=1;exitX=0.5;exitY=1;exitDx=0;exitDy=0;dashed=1;dashPattern=1 2;endArrow=none;endFill=0;entryX=0.5;entryY=0;entryDx=0;entryDy=0;" edge="1" parent="1" target="gC3bpvPvigRXjln-FE_F-127" source="gC3bpvPvigRXjln-FE_F-102">
          <mxGeometry relative="1" as="geometry">
            <mxPoint x="422" y="530" as="sourcePoint" />
            <mxPoint x="432" y="600" as="targetPoint" />
            <Array as="points">
              <mxPoint x="540" y="650" />
            </Array>
          </mxGeometry>
        </mxCell>
        <mxCell id="gC3bpvPvigRXjln-FE_F-127" value="direccion" style="ellipse;whiteSpace=wrap;html=1;align=center;" vertex="1" parent="1">
          <mxGeometry x="553" y="650" width="100" height="40" as="geometry" />
        </mxCell>
        <mxCell id="gC3bpvPvigRXjln-FE_F-128" style="edgeStyle=orthogonalEdgeStyle;rounded=0;orthogonalLoop=1;jettySize=auto;html=1;exitX=0.25;exitY=1;exitDx=0;exitDy=0;dashed=1;dashPattern=1 2;endArrow=none;endFill=0;entryX=0.5;entryY=0;entryDx=0;entryDy=0;" edge="1" parent="1" target="gC3bpvPvigRXjln-FE_F-129" source="gC3bpvPvigRXjln-FE_F-102">
          <mxGeometry relative="1" as="geometry">
            <mxPoint x="472" y="510" as="sourcePoint" />
            <mxPoint x="374" y="540" as="targetPoint" />
            <Array as="points">
              <mxPoint x="500" y="570" />
              <mxPoint x="500" y="650" />
            </Array>
          </mxGeometry>
        </mxCell>
        <mxCell id="gC3bpvPvigRXjln-FE_F-129" value="cuerpo" style="ellipse;whiteSpace=wrap;html=1;align=center;" vertex="1" parent="1">
          <mxGeometry x="420" y="650" width="100" height="40" as="geometry" />
        </mxCell>
        <mxCell id="gC3bpvPvigRXjln-FE_F-107" value="dni" style="ellipse;whiteSpace=wrap;html=1;align=center;fontStyle=4;" vertex="1" parent="1">
          <mxGeometry x="364" y="585" width="100" height="40" as="geometry" />
        </mxCell>
        <mxCell id="gC3bpvPvigRXjln-FE_F-130" style="edgeStyle=orthogonalEdgeStyle;rounded=0;orthogonalLoop=1;jettySize=auto;html=1;exitX=0.5;exitY=1;exitDx=0;exitDy=0;" edge="1" parent="1" source="gC3bpvPvigRXjln-FE_F-107" target="gC3bpvPvigRXjln-FE_F-107">
          <mxGeometry relative="1" as="geometry" />
        </mxCell>
        <mxCell id="gC3bpvPvigRXjln-FE_F-131" value="" style="edgeStyle=orthogonalEdgeStyle;rounded=0;orthogonalLoop=1;jettySize=auto;html=1;exitX=0;exitY=0.5;exitDx=0;exitDy=0;dashed=1;dashPattern=1 2;endArrow=none;endFill=0;" edge="1" parent="1" source="gC3bpvPvigRXjln-FE_F-102" target="gC3bpvPvigRXjln-FE_F-108">
          <mxGeometry relative="1" as="geometry">
            <mxPoint x="480" y="550" as="sourcePoint" />
            <mxPoint x="430" y="585" as="targetPoint" />
          </mxGeometry>
        </mxCell>
        <mxCell id="gC3bpvPvigRXjln-FE_F-108" value="" style="shape=waypoint;sketch=0;fillStyle=solid;size=6;pointerEvents=1;points=[];fillColor=none;resizable=0;rotatable=0;perimeter=centerPerimeter;snapToPoint=1;container=1;" vertex="1" parent="1">
          <mxGeometry x="414" y="575" width="20" height="20" as="geometry" />
        </mxCell>
        <mxCell id="gC3bpvPvigRXjln-FE_F-144" style="edgeStyle=orthogonalEdgeStyle;rounded=0;orthogonalLoop=1;jettySize=auto;html=1;exitX=0.5;exitY=0;exitDx=0;exitDy=0;endArrow=none;endFill=0;" edge="1" parent="1" source="gC3bpvPvigRXjln-FE_F-132">
          <mxGeometry relative="1" as="geometry">
            <mxPoint x="583" y="300" as="targetPoint" />
          </mxGeometry>
        </mxCell>
        <mxCell id="gC3bpvPvigRXjln-FE_F-132" value="IMPARTE&lt;br&gt;N:1" style="rhombus;whiteSpace=wrap;html=1;" vertex="1" parent="1">
          <mxGeometry x="528" y="390" width="110" height="70" as="geometry" />
        </mxCell>
        <mxCell id="gC3bpvPvigRXjln-FE_F-140" style="edgeStyle=orthogonalEdgeStyle;rounded=0;orthogonalLoop=1;jettySize=auto;html=1;exitX=0;exitY=0.5;exitDx=0;exitDy=0;entryX=0.5;entryY=0;entryDx=0;entryDy=0;endArrow=none;endFill=0;" edge="1" parent="1" source="gC3bpvPvigRXjln-FE_F-138" target="gC3bpvPvigRXjln-FE_F-7">
          <mxGeometry relative="1" as="geometry" />
        </mxCell>
        <mxCell id="gC3bpvPvigRXjln-FE_F-138" value="MATRICULA&lt;br&gt;N:N" style="shape=rhombus;perimeter=rhombusPerimeter;whiteSpace=wrap;html=1;align=center;" vertex="1" parent="1">
          <mxGeometry x="293" y="350" width="127" height="70" as="geometry" />
        </mxCell>
        <mxCell id="gC3bpvPvigRXjln-FE_F-145" value="(0, 1)" style="text;strokeColor=none;fillColor=none;spacingLeft=4;spacingRight=4;overflow=hidden;rotatable=0;points=[[0,0.5],[1,0.5]];portConstraint=eastwest;fontSize=12;whiteSpace=wrap;html=1;" vertex="1" parent="1">
          <mxGeometry x="588" y="310" width="50" height="30" as="geometry" />
        </mxCell>
        <mxCell id="gC3bpvPvigRXjln-FE_F-146" value="(0, N)" style="text;strokeColor=none;fillColor=none;spacingLeft=4;spacingRight=4;overflow=hidden;rotatable=0;points=[[0,0.5],[1,0.5]];portConstraint=eastwest;fontSize=12;whiteSpace=wrap;html=1;" vertex="1" parent="1">
          <mxGeometry x="490" y="300" width="50" height="30" as="geometry" />
        </mxCell>
        <mxCell id="gC3bpvPvigRXjln-FE_F-151" style="edgeStyle=orthogonalEdgeStyle;rounded=0;orthogonalLoop=1;jettySize=auto;html=1;exitDx=0;exitDy=0;entryX=0.5;entryY=0;entryDx=0;entryDy=0;endArrow=none;endFill=0;dashed=1;dashPattern=1 2;" edge="1" parent="1" source="gC3bpvPvigRXjln-FE_F-155" target="gC3bpvPvigRXjln-FE_F-154">
          <mxGeometry relative="1" as="geometry" />
        </mxCell>
        <mxCell id="gC3bpvPvigRXjln-FE_F-154" value="dni" style="ellipse;whiteSpace=wrap;html=1;align=center;fontStyle=4;" vertex="1" parent="1">
          <mxGeometry x="18" y="530" width="100" height="40" as="geometry" />
        </mxCell>
        <mxCell id="gC3bpvPvigRXjln-FE_F-156" value="" style="edgeStyle=orthogonalEdgeStyle;rounded=0;orthogonalLoop=1;jettySize=auto;html=1;exitX=0;exitY=0.5;exitDx=0;exitDy=0;entryDx=0;entryDy=0;endArrow=none;endFill=0;dashed=1;dashPattern=1 2;" edge="1" parent="1" source="gC3bpvPvigRXjln-FE_F-7" target="gC3bpvPvigRXjln-FE_F-155">
          <mxGeometry relative="1" as="geometry">
            <mxPoint x="118" y="480" as="sourcePoint" />
            <mxPoint x="68" y="530" as="targetPoint" />
          </mxGeometry>
        </mxCell>
        <mxCell id="gC3bpvPvigRXjln-FE_F-155" value="" style="shape=waypoint;sketch=0;fillStyle=solid;size=6;pointerEvents=1;points=[];fillColor=none;resizable=0;rotatable=0;perimeter=centerPerimeter;snapToPoint=1;container=1;" vertex="1" parent="1">
          <mxGeometry x="58" y="520" width="20" height="20" as="geometry" />
        </mxCell>
        <mxCell id="gC3bpvPvigRXjln-FE_F-164" style="edgeStyle=orthogonalEdgeStyle;rounded=0;orthogonalLoop=1;jettySize=auto;html=1;exitX=1;exitY=0;exitDx=0;exitDy=0;entryX=0.25;entryY=1;entryDx=0;entryDy=0;dashed=1;dashPattern=1 2;endArrow=none;endFill=0;" edge="1" parent="1" source="gC3bpvPvigRXjln-FE_F-157" target="gC3bpvPvigRXjln-FE_F-7">
          <mxGeometry relative="1" as="geometry">
            <Array as="points">
              <mxPoint x="133" y="500" />
            </Array>
          </mxGeometry>
        </mxCell>
        <mxCell id="gC3bpvPvigRXjln-FE_F-157" value="nombre" style="ellipse;whiteSpace=wrap;html=1;align=center;" vertex="1" parent="1">
          <mxGeometry x="48" y="585" width="100" height="40" as="geometry" />
        </mxCell>
        <mxCell id="gC3bpvPvigRXjln-FE_F-162" style="edgeStyle=orthogonalEdgeStyle;rounded=0;orthogonalLoop=1;jettySize=auto;html=1;exitX=0;exitY=0;exitDx=0;exitDy=0;entryX=0.75;entryY=1;entryDx=0;entryDy=0;dashed=1;dashPattern=1 2;endArrow=none;endFill=0;" edge="1" parent="1" source="gC3bpvPvigRXjln-FE_F-158" target="gC3bpvPvigRXjln-FE_F-7">
          <mxGeometry relative="1" as="geometry">
            <Array as="points">
              <mxPoint x="203" y="500" />
            </Array>
          </mxGeometry>
        </mxCell>
        <mxCell id="gC3bpvPvigRXjln-FE_F-158" value="apellido" style="ellipse;whiteSpace=wrap;html=1;align=center;" vertex="1" parent="1">
          <mxGeometry x="188" y="585" width="100" height="40" as="geometry" />
        </mxCell>
        <mxCell id="gC3bpvPvigRXjln-FE_F-163" style="edgeStyle=orthogonalEdgeStyle;rounded=0;orthogonalLoop=1;jettySize=auto;html=1;exitX=0.5;exitY=0;exitDx=0;exitDy=0;entryX=0.5;entryY=1;entryDx=0;entryDy=0;dashed=1;dashPattern=1 2;endArrow=none;endFill=0;" edge="1" parent="1" source="gC3bpvPvigRXjln-FE_F-159" target="gC3bpvPvigRXjln-FE_F-7">
          <mxGeometry relative="1" as="geometry">
            <Array as="points">
              <mxPoint x="163" y="500" />
            </Array>
          </mxGeometry>
        </mxCell>
        <mxCell id="gC3bpvPvigRXjln-FE_F-159" value="direccion" style="ellipse;whiteSpace=wrap;html=1;align=center;" vertex="1" parent="1">
          <mxGeometry x="113" y="625" width="100" height="40" as="geometry" />
        </mxCell>
        <mxCell id="gC3bpvPvigRXjln-FE_F-161" style="edgeStyle=orthogonalEdgeStyle;rounded=0;orthogonalLoop=1;jettySize=auto;html=1;exitX=0.5;exitY=0;exitDx=0;exitDy=0;entryX=1;entryY=0.5;entryDx=0;entryDy=0;dashed=1;dashPattern=1 2;endArrow=none;endFill=0;" edge="1" parent="1" source="gC3bpvPvigRXjln-FE_F-160" target="gC3bpvPvigRXjln-FE_F-7">
          <mxGeometry relative="1" as="geometry" />
        </mxCell>
        <mxCell id="gC3bpvPvigRXjln-FE_F-160" value="fecha_nacimiento" style="ellipse;whiteSpace=wrap;html=1;align=center;" vertex="1" parent="1">
          <mxGeometry x="213" y="530" width="100" height="40" as="geometry" />
        </mxCell>
        <mxCell id="gC3bpvPvigRXjln-FE_F-165" value="(1, N)" style="text;strokeColor=none;fillColor=none;spacingLeft=4;spacingRight=4;overflow=hidden;rotatable=0;points=[[0,0.5],[1,0.5]];portConstraint=eastwest;fontSize=12;whiteSpace=wrap;html=1;" vertex="1" parent="1">
          <mxGeometry x="118" y="430" width="50" height="30" as="geometry" />
        </mxCell>
        <mxCell id="gC3bpvPvigRXjln-FE_F-173" value="" style="group" vertex="1" connectable="0" parent="1">
          <mxGeometry x="268" y="840" width="82" height="20" as="geometry" />
        </mxCell>
        <mxCell id="gC3bpvPvigRXjln-FE_F-174" value="CICLO" style="text;html=1;strokeColor=none;fillColor=none;align=center;verticalAlign=middle;whiteSpace=wrap;rounded=0;fontSize=9;" vertex="1" parent="gC3bpvPvigRXjln-FE_F-173">
          <mxGeometry width="82" height="20" as="geometry" />
        </mxCell>
        <mxCell id="gC3bpvPvigRXjln-FE_F-175" value="" style="endArrow=none;dashed=1;html=1;rounded=0;exitX=0.056;exitY=0.071;exitDx=0;exitDy=0;exitPerimeter=0;entryX=1;entryY=0;entryDx=0;entryDy=0;" edge="1" parent="gC3bpvPvigRXjln-FE_F-173">
          <mxGeometry width="50" height="50" relative="1" as="geometry">
            <mxPoint x="2.0500000000000003" y="1" as="sourcePoint" />
            <mxPoint x="79.95" as="targetPoint" />
          </mxGeometry>
        </mxCell>
        <mxCell id="gC3bpvPvigRXjln-FE_F-177" value="MODULO" style="text;html=1;strokeColor=none;fillColor=none;align=center;verticalAlign=middle;whiteSpace=wrap;rounded=0;fontSize=9;" vertex="1" parent="1">
          <mxGeometry x="330" y="875" width="63.5" height="10" as="geometry" />
        </mxCell>
        <mxCell id="gC3bpvPvigRXjln-FE_F-179" value="" style="endArrow=none;dashed=1;html=1;rounded=0;entryX=1;entryY=0;entryDx=0;entryDy=0;exitX=0;exitY=0;exitDx=0;exitDy=0;" edge="1" parent="1" source="gC3bpvPvigRXjln-FE_F-177" target="gC3bpvPvigRXjln-FE_F-177">
          <mxGeometry width="50" height="50" relative="1" as="geometry">
            <mxPoint x="330" y="871" as="sourcePoint" />
            <mxPoint x="393.5" y="870" as="targetPoint" />
          </mxGeometry>
        </mxCell>
        <mxCell id="gC3bpvPvigRXjln-FE_F-181" value="MODULO" style="text;html=1;strokeColor=none;fillColor=none;align=center;verticalAlign=middle;whiteSpace=wrap;rounded=0;fontSize=9;" vertex="1" parent="1">
          <mxGeometry x="231.25" y="905" width="68.75" height="10" as="geometry" />
        </mxCell>
        <mxCell id="gC3bpvPvigRXjln-FE_F-182" value="" style="endArrow=none;dashed=1;html=1;rounded=0;entryX=1;entryY=0;entryDx=0;entryDy=0;exitX=0;exitY=0;exitDx=0;exitDy=0;" edge="1" parent="1" source="gC3bpvPvigRXjln-FE_F-181" target="gC3bpvPvigRXjln-FE_F-181">
          <mxGeometry width="50" height="50" relative="1" as="geometry">
            <mxPoint x="414" y="901" as="sourcePoint" />
            <mxPoint x="477.5" y="900" as="targetPoint" />
          </mxGeometry>
        </mxCell>
        <mxCell id="gC3bpvPvigRXjln-FE_F-183" value="ALUMNO" style="text;html=1;strokeColor=none;fillColor=none;align=center;verticalAlign=middle;whiteSpace=wrap;rounded=0;fontSize=9;" vertex="1" parent="1">
          <mxGeometry x="160" y="905" width="63.5" height="10" as="geometry" />
        </mxCell>
        <mxCell id="gC3bpvPvigRXjln-FE_F-184" value="" style="endArrow=none;dashed=1;html=1;rounded=0;entryX=1;entryY=0;entryDx=0;entryDy=0;exitX=0;exitY=0;exitDx=0;exitDy=0;" edge="1" parent="1" source="gC3bpvPvigRXjln-FE_F-183" target="gC3bpvPvigRXjln-FE_F-183">
          <mxGeometry width="50" height="50" relative="1" as="geometry">
            <mxPoint x="418" y="946" as="sourcePoint" />
            <mxPoint x="481.5" y="945" as="targetPoint" />
          </mxGeometry>
        </mxCell>
      </root>
    </mxGraphModel>
  </diagram>
</mxfile>
